<svg style="height: 512px; width: 512px;" xmlns="http://www.w3.org/2000/svg" viewBox="0 0 512 512"><path d="M0 0h512v512H0z" fill="#030303" fill-opacity="1"></path><g class="" style="" transform="translate(9,9)"><g><path d="M25 25L25 231L135 231L135 227.6999969482422L99.2699966430664 192L135 156.3000030517578L135 25L25 25Z" class="selected" fill="#ffffff" fill-opacity="1"></path><path d="M423 119C406.5 119 391.70001220703125 122.4000015258789 381.79998779296875 127.4000015258789C371.79998779296875 132.39999389648438 368 138 368 142C368 146 371.79998779296875 151.60000610351562 381.79998779296875 156.60000610351562C391.70001220703125 161.60000610351562 406.5 165 423 165C439.5 165 454.29998779296875 161.60000610351562 464.20001220703125 156.60000610351562C474.20001220703125 151.60000610351562 478 146 478 142C478 138 474.20001220703125 132.39999389648438 464.20001220703125 127.4000015258789C454.29998779296875 122.4000015258789 439.5 119 423 119Z" class="" fill="#ffffff" fill-opacity="1"></path><path d="M160 156.6999969482422L124.69999694824219 192L188.6999969482422 256L124.69999694824219 320L160 355.29998779296875L236.3000030517578 279L329 279L329 316.79998779296875L401.8999938964844 256L329 195.1999969482422L329 233L236.3000030517578 233L160 156.6999969482422Z" class="" fill="#ffffff" fill-opacity="0"></path><path d="M368 169.5L368 204.3000030517578L430.1000061035156 256L368 307.70001220703125L368 366C368 374 372.79998779296875 379.79998779296875 383 384.8999938964844C393.20001220703125 390.1000061035156 408.1000061035156 393 423 393C437.8999938964844 393 452.79998779296875 390.1000061035156 463 384.8999938964844C473.20001220703125 379.79998779296875 478 374 478 366L478 169.5C476.20001220703125 170.60000610351562 474.29998779296875 171.6999969482422 472.29998779296875 172.6999969482422C459.1000061035156 179.3000030517578 441.8999938964844 183 423 183C404.1000061035156 183 386.8999938964844 179.3000030517578 373.70001220703125 172.6999969482422C371.70001220703125 171.6999969482422 369.79998779296875 170.60000610351562 368 169.5Z" class="" fill="#ffffff" fill-opacity="1"></path><path d="M80 361C49.52000045776367 361 25 385.5 25 416C25 446.5 49.52000045776367 471 80 471C110.5 471 135 446.5 135 416C135 385.5 110.5 361 80 361Z" class="" fill="#ffffff" fill-opacity="1"></path></g></g></svg>