<?xml version="1.0" standalone="no"?>
<!DOCTYPE svg PUBLIC "-//W3C//DTD SVG 20010904//EN"
        "http://www.w3.org/TR/2001/REC-SVG-20010904/DTD/svg10.dtd">
<svg version="1.0" xmlns="http://www.w3.org/2000/svg"
     width="1000.000000pt" height="1000.000000pt" viewBox="0 0 1000.000000 1000.000000"
     preserveAspectRatio="xMidYMid meet">

    <g transform="translate(0.000000,1000.000000) scale(0.100000,-0.100000)"
       fill="#FFFFFF" stroke="none">
        <path d="M3778 9293 c7 -3 16 -2 19 1 4 3 -2 6 -13 5 -11 0 -14 -3 -6 -6z"/>
        <path d="M6448 9283 c7 -3 16 -2 19 1 4 3 -2 6 -13 5 -11 0 -14 -3 -6 -6z"/>
        <path d="M3708 9273 c7 -3 16 -2 19 1 4 3 -2 6 -13 5 -11 0 -14 -3 -6 -6z"/>
        <path d="M6645 9221 c240 -81 380 -139 610 -251 649 -318 1211 -774 1645
-1335 490 -634 784 -1362 882 -2190 18 -149 17 -732 0 -880 -50 -418 -135
-761 -279 -1125 -358 -905 -1039 -1687 -1928 -2212 -567 -335 -1210 -554
-1870 -637 -361 -46 -831 -52 -1145 -16 -1013 116 -1974 553 -2720 1237 -797
730 -1280 1658 -1417 2723 -22 176 -26 757 -5 929 108 899 449 1678 1033 2357
562 654 1303 1141 2152 1415 49 16 84 30 79 32 -18 6 -425 -135 -570 -197
-883 -379 -1601 -968 -2107 -1726 -264 -397 -445 -783 -571 -1222 -116 -405
-167 -775 -167 -1218 0 -462 69 -899 209 -1321 421 -1276 1397 -2292 2703
-2816 798 -320 1783 -445 2631 -332 1082 144 2058 625 2815 1389 896 902 1366
2102 1304 3325 -31 609 -178 1169 -450 1712 -159 317 -340 594 -580 883 -107
129 -435 457 -564 564 -513 426 -1088 739 -1712 931 -187 57 -176 48 22 -19z"/>
    </g>
</svg>
