<?xml version="1.0" standalone="no"?>
<!DOCTYPE svg PUBLIC "-//W3C//DTD SVG 20010904//EN"
 "http://www.w3.org/TR/2001/REC-SVG-20010904/DTD/svg10.dtd">
<svg version="1.0" xmlns="http://www.w3.org/2000/svg"
 width="1000.000000pt" height="1000.000000pt" viewBox="0 0 1000.000000 1000.000000"
 preserveAspectRatio="xMidYMid meet">

<g transform="translate(0.000000,1000.000000) scale(0.100000,-0.100000)"
fill="#000000" stroke="none">
<path d="M5878 9413 c7 -3 16 -2 19 1 4 3 -2 6 -13 5 -11 0 -14 -3 -6 -6z"/>
<path d="M5938 9403 c7 -3 16 -2 19 1 4 3 -2 6 -13 5 -11 0 -14 -3 -6 -6z"/>
<path d="M4188 9393 c7 -3 16 -2 19 1 4 3 -2 6 -13 5 -11 0 -14 -3 -6 -6z"/>
<path d="M5998 9393 c6 -2 18 -2 25 0 6 3 1 5 -13 5 -14 0 -19 -2 -12 -5z"/>
<path d="M4138 9383 c7 -3 16 -2 19 1 4 3 -2 6 -13 5 -11 0 -14 -3 -6 -6z"/>
<path d="M6086 9375 c28 -7 56 -15 62 -19 6 -3 13 -2 16 3 3 4 -20 13 -51 20
-74 15 -92 12 -27 -4z"/>
<path d="M4088 9373 c7 -3 16 -2 19 1 4 3 -2 6 -13 5 -11 0 -14 -3 -6 -6z"/>
<path d="M3998 9353 c7 -3 16 -2 19 1 4 3 -2 6 -13 5 -11 0 -14 -3 -6 -6z"/>
<path d="M6225 9344 c28 -8 55 -16 60 -18 6 -1 37 -10 70 -19 33 -10 78 -22
100 -28 22 -7 80 -25 128 -41 49 -17 94 -31 100 -32 7 -2 23 -8 37 -14 14 -6
68 -28 120 -48 52 -19 109 -42 125 -49 17 -7 64 -28 105 -45 358 -153 748
-396 1120 -698 122 -99 503 -478 606 -602 572 -690 907 -1510 985 -2409 15
-175 6 -662 -15 -836 -61 -492 -192 -943 -393 -1349 -69 -138 -173 -326 -213
-386 -10 -14 -46 -68 -81 -120 -193 -291 -427 -566 -684 -803 -71 -66 -133
-130 -138 -141 -7 -21 -7 -21 8 -1 14 17 17 18 25 5 7 -12 12 -12 22 -2 13 13
42 17 34 4 -2 -4 6 -9 20 -10 13 -1 24 2 24 6 0 4 9 8 20 8 11 0 20 -3 20 -7
0 -3 13 -5 30 -4 16 1 27 -2 24 -7 -3 -4 -1 -8 4 -8 6 0 13 7 16 16 3 8 10 13
15 10 18 -11 334 335 497 544 77 98 231 329 312 467 543 923 726 1940 536
2983 -165 902 -605 1720 -1280 2380 -213 208 -424 380 -639 521 -283 186 -389
245 -755 422 -280 135 -535 223 -863 298 -137 31 -185 37 -102 13z"/>
<path d="M3865 9328 c-262 -64 -612 -184 -805 -275 -279 -131 -530 -262 -620
-323 -14 -10 -97 -65 -185 -123 -509 -336 -973 -811 -1314 -1347 -237 -373
-420 -788 -540 -1225 -157 -570 -187 -1265 -80 -1865 134 -760 485 -1497 998
-2095 117 -137 348 -372 366 -372 8 0 12 4 10 8 -9 13 28 19 43 7 13 -11 14
-11 7 2 -7 12 -5 12 11 -1 22 -19 58 -33 50 -20 -3 5 1 12 10 15 8 3 12 2 9
-4 -3 -5 9 -9 29 -8 19 1 33 5 30 9 -2 4 1 11 7 15 8 4 9 3 5 -4 -4 -7 0 -12
11 -13 10 0 29 -2 43 -5 19 -3 5 14 -60 73 -282 253 -550 558 -749 853 -401
593 -631 1203 -718 1900 -25 205 -25 741 0 955 33 276 123 674 207 910 121
343 273 651 476 966 68 105 260 355 356 465 578 657 1284 1127 2103 1399 105
35 228 73 275 85 81 21 110 31 79 29 -8 -1 -32 -6 -54 -11z"/>
</g>
</svg>
